<svg id="visual" viewBox="0 0 900 450" width="900" height="450" xmlns="http://www.w3.org/2000/svg" xmlns:xlink="http://www.w3.org/1999/xlink" version="1.1"><path d="M0 181L13.7 172C27.3 163 54.7 145 82 124.8C109.3 104.7 136.7 82.3 163.8 74.2C191 66 218 72 245.2 81C272.3 90 299.7 102 327 115.5C354.3 129 381.7 144 409 147.7C436.3 151.3 463.7 143.7 491 129.3C518.3 115 545.7 94 573 94C600.3 94 627.7 115 654.8 126.3C682 137.7 709 139.3 736.2 148.3C763.3 157.3 790.7 173.7 818 162.3C845.3 151 872.7 112 886.3 92.5L900 73L900 0L886.3 0C872.7 0 845.3 0 818 0C790.7 0 763.3 0 736.2 0C709 0 682 0 654.8 0C627.7 0 600.3 0 573 0C545.7 0 518.3 0 491 0C463.7 0 436.3 0 409 0C381.7 0 354.3 0 327 0C299.7 0 272.3 0 245.2 0C218 0 191 0 163.8 0C136.7 0 109.3 0 82 0C54.7 0 27.3 0 13.7 0L0 0Z" fill="#5a446d"></path><path d="M0 244L13.7 232C27.3 220 54.7 196 82 180.3C109.3 164.7 136.7 157.3 163.8 151.3C191 145.3 218 140.7 245.2 152.7C272.3 164.7 299.7 193.3 327 218.2C354.3 243 381.7 264 409 261.7C436.3 259.3 463.7 233.7 491 208.8C518.3 184 545.7 160 573 168.3C600.3 176.7 627.7 217.3 654.8 232.3C682 247.3 709 236.7 736.2 232.8C763.3 229 790.7 232 818 223.8C845.3 215.7 872.7 196.3 886.3 186.7L900 177L900 71L886.3 90.5C872.7 110 845.3 149 818 160.3C790.7 171.7 763.3 155.3 736.2 146.3C709 137.3 682 135.7 654.8 124.3C627.7 113 600.3 92 573 92C545.7 92 518.3 113 491 127.3C463.7 141.7 436.3 149.3 409 145.7C381.7 142 354.3 127 327 113.5C299.7 100 272.3 88 245.2 79C218 70 191 64 163.8 72.2C136.7 80.3 109.3 102.7 82 122.8C54.7 143 27.3 161 13.7 170L0 179Z" fill="#483459"></path><path d="M0 285L13.7 275.2C27.3 265.3 54.7 245.7 82 232.8C109.3 220 136.7 214 163.8 204.3C191 194.7 218 181.3 245.2 194.2C272.3 207 299.7 246 327 270C354.3 294 381.7 303 409 295.5C436.3 288 463.7 264 491 243.7C518.3 223.3 545.7 206.7 573 217.2C600.3 227.7 627.7 265.3 654.8 280.3C682 295.3 709 287.7 736.2 281.7C763.3 275.7 790.7 271.3 818 266.8C845.3 262.3 872.7 257.7 886.3 255.3L900 253L900 175L886.3 184.7C872.7 194.3 845.3 213.7 818 221.8C790.7 230 763.3 227 736.2 230.8C709 234.7 682 245.3 654.8 230.3C627.7 215.3 600.3 174.7 573 166.3C545.7 158 518.3 182 491 206.8C463.7 231.7 436.3 257.3 409 259.7C381.7 262 354.3 241 327 216.2C299.7 191.3 272.3 162.7 245.2 150.7C218 138.7 191 143.3 163.8 149.3C136.7 155.3 109.3 162.7 82 178.3C54.7 194 27.3 218 13.7 230L0 242Z" fill="#362446"></path><path d="M0 366L13.7 350.2C27.3 334.3 54.7 302.7 82 289.2C109.3 275.7 136.7 280.3 163.8 279.7C191 279 218 273 245.2 285.7C272.3 298.3 299.7 329.7 327 343.2C354.3 356.7 381.7 352.3 409 346.3C436.3 340.3 463.7 332.7 491 321.3C518.3 310 545.7 295 573 301.8C600.3 308.7 627.7 337.3 654.8 344.2C682 351 709 336 736.2 335.2C763.3 334.3 790.7 347.7 818 347.7C845.3 347.7 872.7 334.3 886.3 327.7L900 321L900 251L886.3 253.3C872.7 255.7 845.3 260.3 818 264.8C790.7 269.3 763.3 273.7 736.2 279.7C709 285.7 682 293.3 654.8 278.3C627.7 263.3 600.3 225.7 573 215.2C545.7 204.7 518.3 221.3 491 241.7C463.7 262 436.3 286 409 293.5C381.7 301 354.3 292 327 268C299.7 244 272.3 205 245.2 192.2C218 179.3 191 192.7 163.8 202.3C136.7 212 109.3 218 82 230.8C54.7 243.7 27.3 263.3 13.7 273.2L0 283Z" fill="#2f203d"></path><path d="M0 451L13.7 451C27.3 451 54.7 451 82 451C109.3 451 136.7 451 163.8 451C191 451 218 451 245.2 451C272.3 451 299.7 451 327 451C354.3 451 381.7 451 409 451C436.3 451 463.7 451 491 451C518.3 451 545.7 451 573 451C600.3 451 627.7 451 654.8 451C682 451 709 451 736.2 451C763.3 451 790.7 451 818 451C845.3 451 872.7 451 886.3 451L900 451L900 319L886.3 325.7C872.7 332.3 845.3 345.7 818 345.7C790.7 345.7 763.3 332.3 736.2 333.2C709 334 682 349 654.8 342.2C627.7 335.3 600.3 306.7 573 299.8C545.7 293 518.3 308 491 319.3C463.7 330.7 436.3 338.3 409 344.3C381.7 350.3 354.3 354.7 327 341.2C299.7 327.7 272.3 296.3 245.2 283.7C218 271 191 277 163.8 277.7C136.7 278.3 109.3 273.7 82 287.2C54.7 300.7 27.3 332.3 13.7 348.2L0 364Z" fill="#281c34"></path></svg>