<svg id="visual" viewBox="0 0 900 900" width="900" height="900" xmlns="http://www.w3.org/2000/svg" xmlns:xlink="http://www.w3.org/1999/xlink" version="1.1"><path d="M0 208L15 230.5C30 253 60 298 90 295C120 292 150 241 180 236.5C210 232 240 274 270 305.5C300 337 330 358 360 343C390 328 420 277 450 239.5C480 202 510 178 540 188.5C570 199 600 244 630 260.5C660 277 690 265 720 272.5C750 280 780 307 810 301C840 295 870 256 885 236.5L900 217L900 0L885 0C870 0 840 0 810 0C780 0 750 0 720 0C690 0 660 0 630 0C600 0 570 0 540 0C510 0 480 0 450 0C420 0 390 0 360 0C330 0 300 0 270 0C240 0 210 0 180 0C150 0 120 0 90 0C60 0 30 0 15 0L0 0Z" fill="#59406e"></path><path d="M0 325L15 341.5C30 358 60 391 90 391C120 391 150 358 180 362.5C210 367 240 409 270 445C300 481 330 511 360 485.5C390 460 420 379 450 340C480 301 510 304 540 322C570 340 600 373 630 382C660 391 690 376 720 385C750 394 780 427 810 416.5C840 406 870 352 885 325L900 298L900 215L885 234.5C870 254 840 293 810 299C780 305 750 278 720 270.5C690 263 660 275 630 258.5C600 242 570 197 540 186.5C510 176 480 200 450 237.5C420 275 390 326 360 341C330 356 300 335 270 303.5C240 272 210 230 180 234.5C150 239 120 290 90 293C60 296 30 251 15 228.5L0 206Z" fill="#47305a"></path><path d="M0 532L15 536.5C30 541 60 550 90 533.5C120 517 150 475 180 485.5C210 496 240 559 270 595C300 631 330 640 360 614.5C390 589 420 529 450 500.5C480 472 510 475 540 502C570 529 600 580 630 577C660 574 690 517 720 511C750 505 780 550 810 542.5C840 535 870 475 885 445L900 415L900 296L885 323C870 350 840 404 810 414.5C780 425 750 392 720 383C690 374 660 389 630 380C600 371 570 338 540 320C510 302 480 299 450 338C420 377 390 458 360 483.5C330 509 300 479 270 443C240 407 210 365 180 360.5C150 356 120 389 90 389C60 389 30 356 15 339.5L0 323Z" fill="#352146"></path><path d="M0 820L15 812.5C30 805 60 790 90 781C120 772 150 769 180 773.5C210 778 240 790 270 802C300 814 330 826 360 820C390 814 420 790 450 779.5C480 769 510 772 540 781C570 790 600 805 630 809.5C660 814 690 808 720 797.5C750 787 780 772 810 770.5C840 769 870 781 885 787L900 793L900 413L885 443C870 473 840 533 810 540.5C780 548 750 503 720 509C690 515 660 572 630 575C600 578 570 527 540 500C510 473 480 470 450 498.5C420 527 390 587 360 612.5C330 638 300 629 270 593C240 557 210 494 180 483.5C150 473 120 515 90 531.5C60 548 30 539 15 534.5L0 530Z" fill="#2e1e3d"></path><path d="M0 901L15 901C30 901 60 901 90 901C120 901 150 901 180 901C210 901 240 901 270 901C300 901 330 901 360 901C390 901 420 901 450 901C480 901 510 901 540 901C570 901 600 901 630 901C660 901 690 901 720 901C750 901 780 901 810 901C840 901 870 901 885 901L900 901L900 791L885 785C870 779 840 767 810 768.5C780 770 750 785 720 795.5C690 806 660 812 630 807.5C600 803 570 788 540 779C510 770 480 767 450 777.5C420 788 390 812 360 818C330 824 300 812 270 800C240 788 210 776 180 771.5C150 767 120 770 90 779C60 788 30 803 15 810.5L0 818Z" fill="#271a34"></path></svg>