<svg id="visual" viewBox="0 0 600 900" width="600" height="900" xmlns="http://www.w3.org/2000/svg" xmlns:xlink="http://www.w3.org/1999/xlink" version="1.1"><path d="M0 226L9.2 220C18.3 214 36.7 202 54.8 194.5C73 187 91 184 109.2 185.5C127.3 187 145.7 193 163.8 184C182 175 200 151 218.2 149.5C236.3 148 254.7 169 272.8 176.5C291 184 309 178 327.2 173.5C345.3 169 363.7 166 381.8 161.5C400 157 418 151 436.2 158.5C454.3 166 472.7 187 490.8 176.5C509 166 527 124 545.2 119.5C563.3 115 581.7 148 590.8 164.5L600 181L600 0L590.8 0C581.7 0 563.3 0 545.2 0C527 0 509 0 490.8 0C472.7 0 454.3 0 436.2 0C418 0 400 0 381.8 0C363.7 0 345.3 0 327.2 0C309 0 291 0 272.8 0C254.7 0 236.3 0 218.2 0C200 0 182 0 163.8 0C145.7 0 127.3 0 109.2 0C91 0 73 0 54.8 0C36.7 0 18.3 0 9.2 0L0 0Z" fill="#59406e"></path><path d="M0 352L9.2 343C18.3 334 36.7 316 54.8 307C73 298 91 298 109.2 301C127.3 304 145.7 310 163.8 293.5C182 277 200 238 218.2 238C236.3 238 254.7 277 272.8 289C291 301 309 286 327.2 283C345.3 280 363.7 289 381.8 289C400 289 418 280 436.2 281.5C454.3 283 472.7 295 490.8 278.5C509 262 527 217 545.2 206.5C563.3 196 581.7 220 590.8 232L600 244L600 179L590.8 162.5C581.7 146 563.3 113 545.2 117.5C527 122 509 164 490.8 174.5C472.7 185 454.3 164 436.2 156.5C418 149 400 155 381.8 159.5C363.7 164 345.3 167 327.2 171.5C309 176 291 182 272.8 174.5C254.7 167 236.3 146 218.2 147.5C200 149 182 173 163.8 182C145.7 191 127.3 185 109.2 183.5C91 182 73 185 54.8 192.5C36.7 200 18.3 212 9.2 218L0 224Z" fill="#47305a"></path><path d="M0 586L9.2 595C18.3 604 36.7 622 54.8 622C73 622 91 604 109.2 575.5C127.3 547 145.7 508 163.8 500.5C182 493 200 517 218.2 530.5C236.3 544 254.7 547 272.8 533.5C291 520 309 490 327.2 511C345.3 532 363.7 604 381.8 595C400 586 418 496 436.2 466C454.3 436 472.7 466 490.8 481C509 496 527 496 545.2 490C563.3 484 581.7 472 590.8 466L600 460L600 242L590.8 230C581.7 218 563.3 194 545.2 204.5C527 215 509 260 490.8 276.5C472.7 293 454.3 281 436.2 279.5C418 278 400 287 381.8 287C363.7 287 345.3 278 327.2 281C309 284 291 299 272.8 287C254.7 275 236.3 236 218.2 236C200 236 182 275 163.8 291.5C145.7 308 127.3 302 109.2 299C91 296 73 296 54.8 305C36.7 314 18.3 332 9.2 341L0 350Z" fill="#352146"></path><path d="M0 784L9.2 781C18.3 778 36.7 772 54.8 778C73 784 91 802 109.2 800.5C127.3 799 145.7 778 163.8 758.5C182 739 200 721 218.2 731.5C236.3 742 254.7 781 272.8 785.5C291 790 309 760 327.2 760C345.3 760 363.7 790 381.8 791.5C400 793 418 766 436.2 763C454.3 760 472.7 781 490.8 788.5C509 796 527 790 545.2 782.5C563.3 775 581.7 766 590.8 761.5L600 757L600 458L590.8 464C581.7 470 563.3 482 545.2 488C527 494 509 494 490.8 479C472.7 464 454.3 434 436.2 464C418 494 400 584 381.8 593C363.7 602 345.3 530 327.2 509C309 488 291 518 272.8 531.5C254.7 545 236.3 542 218.2 528.5C200 515 182 491 163.8 498.5C145.7 506 127.3 545 109.2 573.5C91 602 73 620 54.8 620C36.7 620 18.3 602 9.2 593L0 584Z" fill="#2e1e3d"></path><path d="M0 901L9.2 901C18.3 901 36.7 901 54.8 901C73 901 91 901 109.2 901C127.3 901 145.7 901 163.8 901C182 901 200 901 218.2 901C236.3 901 254.7 901 272.8 901C291 901 309 901 327.2 901C345.3 901 363.7 901 381.8 901C400 901 418 901 436.2 901C454.3 901 472.7 901 490.8 901C509 901 527 901 545.2 901C563.3 901 581.7 901 590.8 901L600 901L600 755L590.8 759.5C581.7 764 563.3 773 545.2 780.5C527 788 509 794 490.8 786.5C472.7 779 454.3 758 436.2 761C418 764 400 791 381.8 789.5C363.7 788 345.3 758 327.2 758C309 758 291 788 272.8 783.5C254.7 779 236.3 740 218.2 729.5C200 719 182 737 163.8 756.5C145.7 776 127.3 797 109.2 798.5C91 800 73 782 54.8 776C36.7 770 18.3 776 9.2 779L0 782Z" fill="#271a34"></path></svg>