<svg id="visual" viewBox="0 0 900 600" width="900" height="600" xmlns="http://www.w3.org/2000/svg" xmlns:xlink="http://www.w3.org/1999/xlink" version="1.1"><rect x="0" y="0" width="900" height="600" fill="#362446"></rect><path d="M0 447L21.5 451.3C43 455.7 86 464.3 128.8 464.5C171.7 464.7 214.3 456.3 257.2 460.2C300 464 343 480 385.8 492C428.7 504 471.3 512 514.2 505.5C557 499 600 478 642.8 467.2C685.7 456.3 728.3 455.7 771.2 451.5C814 447.3 857 439.7 878.5 435.8L900 432L900 601L878.5 601C857 601 814 601 771.2 601C728.3 601 685.7 601 642.8 601C600 601 557 601 514.2 601C471.3 601 428.7 601 385.8 601C343 601 300 601 257.2 601C214.3 601 171.7 601 128.8 601C86 601 43 601 21.5 601L0 601Z" fill="#684983" stroke-linecap="round" stroke-linejoin="miter"></path></svg>