<?xml version="1.0" standalone="no"?><svg xmlns="http://www.w3.org/2000/svg" viewBox="0 0 1440 320"><path fill="#362446fb" fill-opacity="1" d="M0,32L20,74.7C40,117,80,203,120,224C160,245,200,203,240,197.3C280,192,320,224,360,213.3C400,203,440,149,480,117.3C520,85,560,75,600,58.7C640,43,680,21,720,42.7C760,64,800,128,840,144C880,160,920,128,960,133.3C1000,139,1040,181,1080,176C1120,171,1160,117,1200,122.7C1240,128,1280,192,1320,197.3C1360,203,1400,149,1420,122.7L1440,96L1440,320L1420,320C1400,320,1360,320,1320,320C1280,320,1240,320,1200,320C1160,320,1120,320,1080,320C1040,320,1000,320,960,320C920,320,880,320,840,320C800,320,760,320,720,320C680,320,640,320,600,320C560,320,520,320,480,320C440,320,400,320,360,320C320,320,280,320,240,320C200,320,160,320,120,320C80,320,40,320,20,320L0,320Z"></path></svg>